<?xml version="1.0" encoding="UTF-8"?>
<!DOCTYPE svg PUBLIC "-//W3C//DTD SVG 1.1//EN" "http://www.w3.org/Graphics/SVG/1.1/DTD/svg11.dtd">
<!-- Creator: CorelDRAW X5 -->
<svg xmlns="http://www.w3.org/2000/svg" xml:space="preserve" width="180px" height="35px" style="shape-rendering:geometricPrecision; text-rendering:geometricPrecision; image-rendering:optimizeQuality; fill-rule:evenodd; clip-rule:evenodd"
viewBox="0 0 10762 2144"
 xmlns:xlink="http://www.w3.org/1999/xlink">
 <defs>
  <style type="text/css">
   <![CDATA[
    .fil3 {fill:none}
    .fil0 {fill:#323A45}
    .fil2 {fill:#65BC7B}
    .fil1 {fill:white}
   ]]>
  </style>
 </defs>
 <g id="Layer_x0020_1">
  <metadata id="CorelCorpID_0Corel-Layer"/>
  <g id="_206314600">
   <g>
    <path class="fil0" d="M6827 684l-136 386c-3,11 -6,18 -6,22 -1,4 -1,7 -1,9 0,6 2,10 7,13 5,2 15,3 31,3l200 0c15,-1 24,-2 29,-4 4,-2 7,-7 7,-13 0,-4 -1,-8 -2,-13 -1,-5 -3,-11 -4,-17l-124 -386zm3666 629l0 -121c-32,25 -101,45 -207,60l-1 0c-75,10 -126,26 -152,46 -26,20 -39,51 -39,93 0,35 14,64 40,86 27,23 62,34 105,34 77,0 139,-18 184,-54 46,-36 69,-84 69,-144zm18 181c-30,39 -68,68 -114,88 -46,20 -99,30 -159,30 -83,0 -147,-20 -191,-59 -44,-39 -66,-96 -66,-169 0,-67 20,-118 59,-153 39,-35 105,-59 197,-72 5,-1 13,-2 22,-3 151,-22 226,-65 226,-130 0,-41 -15,-73 -44,-96 -29,-23 -70,-34 -121,-34 -43,0 -80,7 -112,21 -32,14 -48,30 -48,46 0,77 -201,82 -106,-53 14,-19 32,-37 56,-52 56,-37 131,-55 224,-55 97,0 166,21 208,62 42,41 63,110 63,205l0 353c0,35 4,59 11,70 7,12 20,17 38,17 12,0 22,-2 30,-7 70,-35 78,109 -42,109 -41,0 -72,-10 -95,-31 -23,-21 -35,-50 -37,-87zm-5769 -181l0 -121c-32,25 -101,45 -207,60l-1 0c-75,10 -126,26 -152,46 -26,20 -39,51 -39,93 0,35 14,64 40,86 27,23 62,34 105,34 77,0 139,-18 184,-54 46,-36 69,-84 69,-144zm18 181c-30,39 -68,68 -114,88 -46,20 -99,30 -159,30 -83,0 -147,-20 -191,-59 -44,-39 -66,-96 -66,-169 0,-67 20,-118 59,-153 39,-35 105,-59 197,-72 5,-1 13,-2 22,-3 151,-22 227,-65 227,-130 0,-41 -15,-73 -44,-96 -29,-23 -70,-34 -121,-34 -43,0 -80,7 -112,21 -32,14 -48,30 -48,46 0,77 -201,82 -106,-53 14,-19 32,-37 56,-52 56,-37 131,-55 224,-55 97,0 166,21 208,62 42,41 63,110 63,205l0 353c0,35 4,59 11,70 7,12 20,17 38,17 12,0 22,-2 30,-7 70,-35 78,109 -42,109 -41,0 -72,-10 -95,-31 -23,-21 -35,-50 -37,-87zm1042 -323c0,-94 -16,-161 -47,-202 -31,-40 -83,-61 -154,-61 -81,0 -140,28 -178,84 -38,56 -57,145 -57,266l0 158c0,136 103,48 154,90 10,8 15,21 15,39 0,16 -5,27 -14,35 -9,8 -23,12 -41,12 -117,0 -234,0 -351,0 -22,0 -37,-3 -46,-10 -9,-7 -13,-19 -13,-35 0,-17 5,-31 16,-40 54,-44 165,50 165,-102l0 -377c0,-44 -5,-73 -16,-88 -10,-15 -30,-22 -59,-22l-48 0c-21,0 -35,-3 -44,-10 -9,-6 -14,-17 -14,-31 0,-16 5,-29 16,-38 11,-9 26,-13 46,-13 59,0 117,0 176,0 20,0 33,4 40,12 7,8 10,25 10,52l0 57c36,-48 75,-82 116,-103 41,-21 89,-31 145,-31 106,0 182,26 230,78 48,52 71,136 71,253l0 247c0,171 102,70 163,116 11,9 17,22 17,40 0,16 -5,28 -15,35 -10,7 -26,11 -48,11 -116,0 -233,0 -350,0 -18,0 -32,-4 -41,-12 -9,-8 -14,-20 -14,-35 0,-17 5,-30 15,-39 45,-39 140,25 150,-50 2,-15 3,-36 3,-63l0 -223zm-2011 221c0,127 16,105 122,105 24,0 43,2 54,10 11,8 16,21 16,39 0,15 -5,27 -16,35 -11,8 -26,12 -46,12 -124,0 -249,0 -373,0 -21,0 -36,-3 -45,-10 -9,-7 -13,-19 -13,-35 0,-17 5,-31 15,-40 10,-9 26,-10 47,-10 99,0 117,16 117,-105l0 -325c0,-68 -5,-109 -15,-125 -10,-16 -30,-24 -59,-24l-48 0c-20,0 -35,-3 -43,-10 -9,-6 -13,-17 -13,-31 0,-16 5,-29 16,-38 10,-9 25,-13 45,-13 58,0 117,0 175,0 20,0 33,4 41,12 7,9 11,26 11,52l-2 43c21,-42 48,-74 83,-96 34,-22 74,-33 120,-33 64,0 116,20 157,60 38,37 59,84 61,142 2,90 -137,68 -126,-4 3,-5 6,-8 6,-15 0,-21 -12,-42 -35,-61 -23,-19 -50,-29 -79,-29 -62,0 -106,26 -132,78 -26,52 -39,144 -39,275l0 139zm-713 -662c0,-104 -91,-85 -169,-85 -17,0 -33,-2 -43,-13 -11,-10 -16,-24 -16,-41 0,-20 5,-34 16,-44 11,-10 27,-15 49,-15 155,0 311,0 466,0 22,0 38,5 49,15 11,10 16,24 16,44 0,17 -5,30 -16,41 -11,10 -25,13 -43,13 -74,0 -168,-21 -168,85l0 670c0,110 91,87 169,87 18,0 31,0 42,10 11,10 16,23 16,39 0,20 -5,34 -16,44 -11,9 -27,14 -49,14 -155,0 -311,0 -466,0 -22,0 -38,-5 -49,-14 -11,-9 -16,-24 -16,-44 0,-16 5,-29 16,-39 11,-10 24,-12 42,-12 76,0 170,23 170,-84l0 -670zm5638 583l0 -121c-32,25 -101,45 -207,60l-1 0c-75,10 -126,26 -152,46 -26,20 -39,51 -39,93 0,35 14,64 40,86 27,23 62,34 105,34 77,0 139,-18 184,-54 46,-36 69,-84 69,-144zm18 181c-30,39 -68,68 -114,88 -46,20 -99,30 -159,30 -83,0 -147,-20 -191,-59 -44,-39 -66,-96 -66,-169 0,-67 20,-118 59,-153 39,-35 105,-59 197,-72 5,-1 13,-2 22,-3 151,-22 227,-65 227,-130 0,-41 -15,-73 -44,-96 -29,-23 -70,-34 -121,-34 -43,0 -80,7 -112,21 -32,14 -48,30 -48,46 0,77 -201,82 -106,-53 14,-19 32,-37 56,-52 56,-37 131,-55 224,-55 97,0 166,21 208,62 42,41 63,110 63,205l0 353c0,35 4,59 11,70 7,12 20,17 38,17 12,0 22,-2 30,-7 70,-35 78,109 -42,109 -41,0 -72,-10 -95,-31 -23,-21 -35,-50 -37,-87zm912 -229l0 -98c0,-82 -20,-146 -60,-193 -40,-47 -94,-70 -162,-70 -73,0 -131,27 -175,81 -43,54 -65,128 -65,220 0,97 22,172 65,225 43,53 105,79 184,79 73,0 127,-20 161,-59 34,-39 52,-101 52,-185zm0 -470l0 -31c0,-57 -6,-92 -19,-107 -12,-14 -37,-21 -74,-21l-48 0c-20,0 -35,-4 -44,-11 -9,-7 -14,-18 -14,-34 0,-16 5,-28 16,-37 11,-9 26,-13 46,-13 2,0 11,1 28,2 17,2 32,2 46,2 36,0 72,-1 109,-4 8,-1 12,-1 15,-1 22,0 37,4 44,12 8,8 11,26 11,52l0 789c0,50 5,80 15,90 10,10 29,16 59,16l40 0c22,0 39,4 50,13 11,8 16,21 16,37 0,16 -5,28 -15,35 -10,7 -26,11 -48,11 -67,0 -134,0 -201,0 -15,0 -25,-3 -30,-10 -5,-7 -8,-23 -8,-49l0 -14c-29,28 -62,49 -101,64 -38,15 -80,22 -125,22 -110,0 -197,-35 -261,-106 -64,-70 -97,-165 -97,-285 0,-128 31,-230 93,-305 62,-76 146,-113 251,-113 54,0 101,10 141,30 39,20 74,52 104,95l0 -130zm-1833 756c-7,18 -17,32 -31,41 -14,9 -30,14 -51,14 -21,0 -37,-4 -49,-12 -12,-9 -22,-23 -30,-42l-216 -550c-1,-3 -2,-6 -4,-11 -19,-49 -46,-74 -80,-74 -35,0 -122,24 -122,-42 0,-16 6,-28 19,-37 13,-9 30,-14 51,-14 112,0 226,0 337,0 16,0 28,4 38,13 9,9 14,20 14,35 0,17 -4,30 -13,38 -38,35 -147,-29 -127,58 1,5 3,10 5,15l178 490 177 -490c2,-5 4,-10 5,-15 1,-5 1,-9 1,-12 0,-71 -92,-12 -127,-45 -9,-8 -13,-21 -13,-38 0,-15 5,-27 14,-35 9,-9 22,-13 37,-13 112,0 225,0 337,0 22,0 39,5 52,14 13,9 19,22 19,37 0,15 -6,26 -17,35 -66,47 -153,-49 -188,88l-1 3 -214 550zm-1150 -336c-11,0 -20,4 -27,11 -7,8 -14,20 -20,37l-42 124c-4,10 -6,21 -8,32 -18,84 67,64 130,64 22,0 39,5 50,14 11,9 17,23 17,41 0,19 -5,33 -16,42 -10,10 -26,15 -47,15 -141,0 -283,0 -425,0 -20,0 -36,-5 -49,-16 -13,-11 -20,-24 -20,-40 0,-15 5,-28 16,-40 11,-11 22,-17 36,-17 101,0 132,25 175,-92l283 -760c15,-38 30,-64 45,-77 15,-13 35,-20 59,-20 29,0 51,6 67,19 15,13 31,41 48,84l272 754c37,105 57,92 146,92 32,0 53,4 64,13 11,9 17,23 17,43 0,16 -7,29 -20,40 -13,11 -29,16 -49,16 -140,0 -280,0 -420,0 -20,0 -35,-5 -45,-15 -10,-10 -15,-24 -15,-42 0,-18 5,-31 17,-41 53,-44 192,36 168,-84 -2,-9 -4,-17 -7,-26l-40 -124c-5,-14 -12,-26 -23,-35 -10,-9 -21,-14 -32,-14l-305 0z"/>
    <g>
     <rect class="fil0" x="29" y="26" width="2093" height="2093" rx="171" ry="171"/>
     <g>
      <path class="fil1" d="M763 1129l272 0 -136 -388 -136 388zm-362 327l112 0 303 -867 29 0 106 0 29 0 303 867 112 0 0 99 -355 0 0 -99 107 0 -74 -211 -353 0 -74 211 107 0 0 99 -355 0 0 -99z"/>
      <circle class="fil2" cx="1591" cy="877" r="158"/>
      <circle class="fil2" cx="1591" cy="1332" r="158"/>
     </g>
    </g>
   </g>
   <rect class="fil3" width="10754" height="2144"/>
  </g>
 </g>
</svg>
